<?xml version="1.0" encoding="utf-8"?>
<!-- Generator: Adobe Illustrator 16.0.0, SVG Export Plug-In . SVG Version: 6.00 Build 0)  -->
<!DOCTYPE svg PUBLIC "-//W3C//DTD SVG 1.1//EN" "http://www.w3.org/Graphics/SVG/1.1/DTD/svg11.dtd">
<svg version="1.1" id="Layer_1" xmlns="http://www.w3.org/2000/svg" xmlns:xlink="http://www.w3.org/1999/xlink" x="0px" y="0px"
	 width="2000px" height="1000px" viewBox="0 0 2000 1000" enable-background="new 0 0 2000 1000" xml:space="preserve">
<path fill="#FFFFFF" d="M1000,446.717c-44.686,0-81.244,36.189-81.244,80.43c0,44.242,36.559,80.434,81.244,80.434
	c44.684,0,81.244-36.189,81.244-80.434C1081.244,482.906,1044.684,446.717,1000,446.717z M1243.75,527.145
	c0-132.707-109.693-241.287-243.75-241.287s-243.75,108.58-243.75,241.287c0,88.482,48.752,166.889,121.867,209.125l40.639-70.375
	c-48.773-28.158-81.258-78.424-81.258-138.75c0-88.467,73.111-160.855,162.502-160.855c89.396,0,162.502,72.389,162.502,160.855
	c0,60.326-32.486,110.592-81.258,138.75l40.639,70.375C1194.994,694.035,1243.75,615.627,1243.75,527.145z M1000,125
	c-223.443,0-406.25,180.965-406.25,402.145c0,148.803,81.234,277.48,203.125,347.855l40.623-70.375
	C740,748.328,674.984,645.789,674.984,527.146c0-176.939,146.271-321.715,325.016-321.715s325.012,144.775,325.012,321.715
	c0,118.643-65.008,223.186-162.51,277.479L1203.125,875c121.887-70.375,203.125-199.053,203.125-347.855
	C1406.25,305.965,1223.443,125,1000,125z"/>
</svg>
