<?xml version="1.0" encoding="utf-8"?>
<!-- Generator: Adobe Illustrator 16.0.0, SVG Export Plug-In . SVG Version: 6.00 Build 0)  -->
<!DOCTYPE svg PUBLIC "-//W3C//DTD SVG 1.1//EN" "http://www.w3.org/Graphics/SVG/1.1/DTD/svg11.dtd">
<svg version="1.1" id="Layer_1" xmlns="http://www.w3.org/2000/svg" xmlns:xlink="http://www.w3.org/1999/xlink" x="0px" y="0px"
	 width="750px" height="875px" viewBox="625 62.5 750 875" enable-background="new 625 62.5 750 875" xml:space="preserve">
<path fill="#FFFFFF" d="M1375,187.5c0-68.945-56.055-125-125-125s-125,56.055-125,125c0,46.094,25.195,86.523,62.5,108.203v103.125
	l-187.5,93.75l-187.5-93.75V295.703c37.305-21.68,62.5-62.109,62.5-108.203c0-68.945-56.055-125-125-125s-125,56.055-125,125
	c0,46.094,25.195,86.523,62.5,108.203v180.469l250,125v103.125C900.195,725.977,875,766.406,875,812.5c0,68.945,56.055,125,125,125
	s125-56.055,125-125c0-46.094-25.195-86.523-62.5-108.203V601.172l250-125V295.703C1349.805,274.023,1375,233.594,1375,187.5z
	 M750,109.375c43.164,0,78.125,34.961,78.125,78.125S793.164,265.625,750,265.625s-78.125-34.961-78.125-78.125
	S706.836,109.375,750,109.375z M1000,890.625c-43.164,0-78.125-34.961-78.125-78.125s34.961-78.125,78.125-78.125
	s78.125,34.961,78.125,78.125S1043.164,890.625,1000,890.625z M1250,265.625c-43.164,0-78.125-34.961-78.125-78.125
	s34.961-78.125,78.125-78.125s78.125,34.961,78.125,78.125S1293.164,265.625,1250,265.625z"/>
</svg>
