<?xml version="1.0" encoding="utf-8"?>
<!-- Generator: Adobe Illustrator 16.0.0, SVG Export Plug-In . SVG Version: 6.00 Build 0)  -->
<!DOCTYPE svg PUBLIC "-//W3C//DTD SVG 1.1//EN" "http://www.w3.org/Graphics/SVG/1.1/DTD/svg11.dtd">
<svg version="1.1"
	 id="svg2" xmlns:dc="http://purl.org/dc/elements/1.1/" xmlns:cc="http://creativecommons.org/ns#" xmlns:rdf="http://www.w3.org/1999/02/22-rdf-syntax-ns#" xmlns:svg="http://www.w3.org/2000/svg" xmlns:sodipodi="http://sodipodi.sourceforge.net/DTD/sodipodi-0.dtd" xmlns:inkscape="http://www.inkscape.org/namespaces/inkscape" sodipodi:docname="kubernetes-icon.svg" inkscape:version="0.92.2 (5c3e80d, 2017-08-06)"
	 xmlns="http://www.w3.org/2000/svg" xmlns:xlink="http://www.w3.org/1999/xlink" x="0px" y="0px" width="1500px" height="1500px"
	 viewBox="-718 -718 1500 1500" enable-background="new -718 -718 1500 1500" xml:space="preserve">
<g id="layer1" transform="matrix(0.21833354,0,0,0.21833354,0.00207459,0.47626699)">
	<g id="g3052">
		<path id="path3055" inkscape:connector-curvature="0" fill="#326CE5" d="M132.372-3199.217
			c-61.461,3.614-121.611,19.557-176.774,46.877l-2391.801,1141.964c-125.021,59.521-216.011,172.797-247.157,307.674
			L-3269.13,859.793c-27.953,120.094-5.403,246.375,62.351,349.374c8.183,12.47,16.784,24.533,25.806,36.176l1654.101,2056.433
			c87.477,107.092,218.626,168.969,356.918,168.347h2652.484c138.871,0.309,270.179-62.306,357.448-170.234l1653.157-2056.961
			c86.629-107.504,119.15-248.987,88.096-383.551l-589.961-2564.909c-31.148-134.879-122.188-248.15-247.104-307.676L354.2-3152.34
			C285.399-3186.217,209.094-3202.368,132.372-3199.217z"/>
	</g>
</g>
<g>
	<path fill="#FFFFFF" d="M297.08-39.604c-6.824,22.898-10.854,47.126-21.066,68.423c-41.702,87.407-108.591,141.175-207.47,152.465
		c-57.89,6.596-116.959,10.029-159.587,61.187c-42.582,51.112-57.591,106.3-33.412,168.426
		c22.718,58.509,64.67,98.812,128.399,108.979c87.521,14.014,142.572-21.434,179.531-87.545
		c32.816-58.784,29.746-136.275-32.427-198.47c-3.755-3.755-6.823-8.152-12.204-14.564c27.868-15.388,53.447-30.594,80.284-43.371
		c4.535-2.153,16.535,4.351,21.023,10.029c116.65,148.344,52.621,367.582-129.611,422.701
		c-148.893,45.043-306.211-51.89-336.576-203.254c-24.205-120.704,45.58-256.682,166.363-299.205
		C-32.396,96.624-2.685,88.494,25.8,88.77C136.83,89.914,222.519,42.696,297.08-39.604z"/>
	<path fill="#FFFFFF" d="M-224.307,175.101c-1.122-48.157,17.278-84.567,40.727-117.728
		c50.31-71.101,119.032-106.665,207.573-110.26c89.203-3.584,147.231-47.597,171.917-129.291
		c29.747-98.33-49.921-204.709-152.03-210.434c-95.273-5.37-176.051,70.885-179.646,164.075
		c-1.328,35.288,23.06,72.385,39.193,107.043c4.705,10.133,21.502,14.633,38.219,25.132c-41.06,22.545-69.054,37.922-100.46,55.154
		c-54.305-64.669-84.11-137.695-67.37-227.85c17.587-94.69,69.11-160.137,155.59-199.718
		c104.742-47.929,245.529-8.862,313.952,80.525c87.202,113.822,64.853,275.87-30.502,361.046
		C166.369,14.277,110.679,39.249,50.407,39.649C-62.557,40.349-151.543,83.503-224.307,175.101z"/>
</g>
</svg>
