<?xml version="1.0" encoding="utf-8"?>
<!-- Generator: Adobe Illustrator 16.0.0, SVG Export Plug-In . SVG Version: 6.00 Build 0)  -->
<!DOCTYPE svg PUBLIC "-//W3C//DTD SVG 1.1//EN" "http://www.w3.org/Graphics/SVG/1.1/DTD/svg11.dtd">
<svg version="1.1"
	 id="svg2" xmlns:dc="http://purl.org/dc/elements/1.1/" xmlns:cc="http://creativecommons.org/ns#" xmlns:rdf="http://www.w3.org/1999/02/22-rdf-syntax-ns#" xmlns:svg="http://www.w3.org/2000/svg" xmlns:sodipodi="http://sodipodi.sourceforge.net/DTD/sodipodi-0.dtd" xmlns:inkscape="http://www.inkscape.org/namespaces/inkscape" inkscape:version="0.92.2 (5c3e80d, 2017-08-06)" sodipodi:docname="kubernetes-icon.svg"
	 xmlns="http://www.w3.org/2000/svg" xmlns:xlink="http://www.w3.org/1999/xlink" x="0px" y="0px" width="64px" height="64px"
	 viewBox="0 0 64 64" enable-background="new 0 0 64 64" xml:space="preserve">
<g id="layer1" transform="matrix(0.21833354,0,0,0.21833354,0.00207459,0.47626699)">
	<g id="g3052">
		<path id="path3055" inkscape:connector-curvature="0" fill="#326CE5" d="M145.549,2.182c-2.621,0.154-5.186,0.834-7.539,1.999
			l-102,48.7c-5.332,2.538-9.212,7.369-10.54,13.121L0.489,175.281c-1.192,5.121-0.23,10.507,2.659,14.899
			c0.349,0.532,0.716,1.047,1.101,1.543l70.54,87.698c3.73,4.567,9.324,7.206,15.221,7.179h113.117
			c5.922,0.013,11.522-2.657,15.243-7.259l70.5-87.72c3.694-4.584,5.081-10.618,3.757-16.357L267.468,65.881
			c-1.329-5.752-5.211-10.583-10.538-13.121L155.009,4.181C152.075,2.736,148.821,2.048,145.549,2.182z"/>
	</g>
</g>
<g>
	<path fill-rule="evenodd" clip-rule="evenodd" fill="#FFFFFF" d="M43.217,29.031c-0.291,0.977-0.463,2.01-0.898,2.918
		c-1.779,3.728-4.631,6.021-8.848,6.502c-2.469,0.282-4.988,0.428-6.806,2.609c-1.816,2.18-2.456,4.534-1.425,7.183
		c0.969,2.495,2.758,4.214,5.476,4.648c3.732,0.597,6.08-0.915,7.656-3.734c1.4-2.506,1.268-5.811-1.383-8.464
		c-0.16-0.16-0.291-0.347-0.52-0.621c1.188-0.656,2.279-1.305,3.424-1.849c0.193-0.092,0.705,0.185,0.896,0.428
		c4.975,6.325,2.244,15.675-5.527,18.026c-6.35,1.92-13.059-2.213-14.354-8.668c-1.032-5.147,1.944-10.947,7.095-12.76
		c1.163-0.408,2.43-0.755,3.645-0.743C36.383,34.554,40.037,32.541,43.217,29.031z"/>
	<path fill-rule="evenodd" clip-rule="evenodd" fill="#FFFFFF" d="M20.982,38.188c-0.048-2.054,0.737-3.607,1.737-5.021
		c2.145-3.032,5.076-4.549,8.852-4.702c3.804-0.153,6.279-2.03,7.332-5.514c1.268-4.193-2.129-8.73-6.484-8.974
		c-4.063-0.229-7.508,3.023-7.661,6.997c-0.057,1.505,0.983,3.087,1.671,4.565c0.201,0.432,0.917,0.624,1.63,1.072
		c-1.751,0.961-2.945,1.617-4.284,2.352c-2.316-2.758-3.587-5.872-2.873-9.717c0.75-4.038,2.947-6.829,6.635-8.517
		c4.467-2.044,10.471-0.378,13.389,3.434c3.719,4.854,2.766,11.765-1.301,15.397c-1.982,1.769-4.357,2.834-6.928,2.851
		C27.88,32.441,24.085,34.281,20.982,38.188z"/>
</g>
</svg>
