<?xml version="1.0" encoding="utf-8"?>
<!-- Generator: Adobe Illustrator 16.0.0, SVG Export Plug-In . SVG Version: 6.00 Build 0)  -->
<!DOCTYPE svg PUBLIC "-//W3C//DTD SVG 1.1//EN" "http://www.w3.org/Graphics/SVG/1.1/DTD/svg11.dtd">
<svg version="1.1" id="Layer_1" xmlns="http://www.w3.org/2000/svg" xmlns:xlink="http://www.w3.org/1999/xlink" x="0px" y="0px"
	 width="875px" height="875px" viewBox="562.5 62.5 875 875" enable-background="new 562.5 62.5 875 875" xml:space="preserve">
<g id="Layer_2">
	<g id="Layer_3">
		<rect x="702.5" y="204.5" fill="#FFFFFF" width="624.454" height="586.204"/>
	</g>
</g>
<g id="Layer_1_1_">
	<path d="M971.17,593.625c-29.926-20.229-60.043-40.174-89.965-60.41c-3.965-2.682-6.699-2.875-10.746-0.057l-75.92,51.082
		c60.863,40.574,182.023,121.457,182.023,121.457V600.646C976.539,598.256,973.529,595.217,971.17,593.625L971.17,593.625z
		 M881.039,470.051c30.184-19.844,60.256-39.86,90.057-60.272c2.902-1.988,5.42-6.854,5.467-10.418V298.371
		c0,0-121.157,80.32-182.151,120.979c26.758,17.89,52.092,34.986,77.709,51.646C874.111,472.291,878.752,471.553,881.039,470.051z
		 M1027.027,408.895c30.876,20.909,61.884,41.622,93.021,62.14c1.789,1.18,5.703,1.176,7.498,0l77.64-51.693l-181.748-121.52V402.02
		C1023.457,404.365,1025.01,407.529,1027.027,408.895L1027.027,408.895z M1004.119,449.939c-2.363-1.566-7.053-1.031-9.264,0.327
		c-9.408,5.785-18.482,12.115-27.664,18.271c-16.109,10.801-49.523,33.248-49.523,33.248l75.863,50.518
		c3.414,2.261,8.664,2.384,12.227,0.218l76.199-50.769C1081.959,501.754,1015.396,457.416,1004.119,449.939L1004.119,449.939z
		 M775.391,463.117v77.361l57.855-38.746L775.391,463.117z"/>
	<path d="M1000,62.5c-241.625,0-437.5,195.875-437.5,437.5S758.375,937.5,1000,937.5s437.5-195.875,437.5-437.5
		S1241.625,62.5,1000,62.5z M1271.484,580.09c0,11.299-5.181,19.273-14.67,25.574c-80.368,53.352-160.634,106.86-240.793,160.523
		c-11.435,7.651-21.824,7.331-33.173-0.269c-79.653-53.348-159.606-106.535-239.502-159.522
		c-9.979-6.619-14.832-14.761-14.832-26.816V423.859c0-11.994,4.925-20.181,14.892-26.789
		c79.895-52.988,160.037-106.178,239.695-159.523c11.362-7.609,21.668-7.826,33.081-0.186
		c80.151,53.657,160.4,107.168,240.744,160.538c9.138,6.065,14.558,13.561,14.558,24.727V580.09z"/>
	<path d="M1117.67,533.66c-29.407,19.958-58.956,39.706-88.645,59.242c-4.711,3.102-5.642,6.479-5.588,12.088v100.285
		l181.717-121.103l-75.248-50.551C1125.326,530.49,1122.23,530.562,1117.67,533.66L1117.67,533.66z M1222.656,540.383v-77.375
		l-57.793,38.814L1222.656,540.383z"/>
</g>
</svg>
