<?xml version="1.0" encoding="utf-8"?>
<!-- Generator: Adobe Illustrator 16.0.0, SVG Export Plug-In . SVG Version: 6.00 Build 0)  -->
<!DOCTYPE svg PUBLIC "-//W3C//DTD SVG 1.1//EN" "http://www.w3.org/Graphics/SVG/1.1/DTD/svg11.dtd">
<svg version="1.1" id="Layer_1" xmlns="http://www.w3.org/2000/svg" xmlns:xlink="http://www.w3.org/1999/xlink" x="0px" y="0px"
	 width="2000px" height="1000px" viewBox="0 0 2000 1000" enable-background="new 0 0 2000 1000" xml:space="preserve">
<path fill="#FFFFFF" d="M1000,62.5c-241.625,0-437.5,195.875-437.5,437.5S758.375,937.5,1000,937.5s437.5-195.875,437.5-437.5
	S1241.625,62.5,1000,62.5z M1265.166,765.166C1194.336,835.992,1100.166,875,1000,875s-194.336-39.008-265.166-109.834
	C664.008,694.336,625,600.166,625,500s39.008-194.336,109.834-265.166C805.664,164.008,899.834,125,1000,125
	s194.336,39.008,265.166,109.834C1335.992,305.664,1375,399.834,1375,500S1335.992,694.336,1265.166,765.166z"/>
<path fill="#FFFFFF" d="M890.709,207.162C811.352,236.793,747.283,297.752,713.527,375H1000L890.709,207.162z M1306.244,562.5
	c4.17-20.572,6.266-41.51,6.256-62.5c0-71.531-24.051-137.436-64.484-190.105L1107.422,562.5H1306.244z M1203.072,262.49
	c-54.621-46.746-125.545-74.99-203.072-74.99c-15.559,0-30.848,1.154-45.797,3.35l152.93,246.65L1203.072,262.49z M693.758,437.5
	c-4.171,20.571-6.268,41.51-6.258,62.5c0,71.561,24.07,137.488,64.533,190.168L892.578,437.5H693.758z M1109.295,792.836
	c79.357-29.631,143.424-90.59,177.178-167.836H1000L1109.295,792.836z M796.965,737.541C851.58,784.268,922.488,812.5,1000,812.5
	c15.564,0,30.857-1.156,45.812-3.352L892.898,562.5L796.965,737.541z"/>
</svg>
